<svg class="icon" width="200" height="200" viewBox="0 0 1024 1024" xmlns="http://www.w3.org/2000/svg"><path d="M719.5 436c0-17.7-14.3-32-32-32H291.4c-17.7 0-32 14.3-32 32s14.3 32 32 32h396.2c17.6 0 31.9-14.3 31.9-32zM291.4 541.5c-17.7 0-32 14.3-32 32s14.3 32 32 32h256.2c17.7 0 32-14.3 32-32s-14.3-32-32-32H291.4z"/><path d="M579 889.5H163.9V220.6H309c.5 33.8 28.1 61.1 62 61.1h287.8c33.9 0 61.5-27.3 62-61.1h145.1v360.8c0 17.7 14.3 32 32 32s32-14.3 32-32V220.6c0-35.3-28.7-64-64-64H720.8V130c0-34.2-27.8-62-62-62H371c-34.2 0-62 27.8-62 62v26.6H163.9c-35.3 0-64 28.7-64 64v668.9c0 35.3 28.7 64 64 64H579c17.7 0 32-14.3 32-32s-14.3-32-32-32zM373 132h283.8v85.7H373V132z"/><path d="M673.5 879.9c6.2 6.2 14.4 9.4 22.6 9.4s16.4-3.1 22.6-9.4c12.5-12.5 12.5-32.8 0-45.3l-48.9-48.9h227.5c17.7 0 32-14.3 32-32s-14.3-32-32-32h-224l45.3-45.3c12.5-12.5 12.5-32.8 0-45.3s-32.8-12.5-45.3 0L571.8 732.9c-12.5 12.5-12.5 32.8 0 45.3l101.7 101.7z"/></svg>