<svg class="icon" width="200" height="200" viewBox="0 0 1024 1024" xmlns="http://www.w3.org/2000/svg"><path d="M792.576 323.584H209.92c-5.632 0-10.752-4.608-10.752-10.752V266.24c0-5.632 4.608-10.752 10.752-10.752h582.656c5.632 0 10.752 4.608 10.752 10.752v46.592c0 6.144-4.608 10.752-10.752 10.752zM561.152 563.2H209.92c-5.632 0-10.752-4.608-10.752-10.752v-46.592c0-5.632 4.608-10.752 10.752-10.752h351.232c5.632 0 10.752 4.608 10.752 10.752v46.592c-.512 6.144-5.12 10.752-10.752 10.752zm-27.136 336.896l-143.36-143.36c-3.584-3.584-3.584-9.728 0-13.824l30.208-30.208c3.584-3.584 9.728-3.584 13.824 0l143.36 143.36c3.584 3.584 3.584 9.728 0 13.824l-30.208 30.208c-4.096 4.096-10.24 4.096-13.824 0z"/><path d="M525.312 847.36l223.232-216.576c12.288-12.288 31.744-12.288 43.52 0 12.288 12.288 12.288 31.744 0 43.52L569.344 890.88c-12.288 12.288-31.744 12.288-43.52 0-12.288-12.288-12.288-31.744-.512-43.52z"/><path d="M813.568 1013.76H178.176c-63.488 0-115.2-51.712-115.2-115.2V120.32c0-63.488 51.712-115.2 115.2-115.2h659.968c63.488 0 115.2 51.712 115.2 115.2v712.192c0 17.408-13.312 32.768-30.208 34.304-11.264 1.024-21.504-4.096-28.16-12.8-6.656-7.68-10.24-17.92-8.192-28.672 0-1.024.512-2.56 1.024-3.584V120.32c0-27.136-22.016-49.152-49.152-49.152h-660.48c-27.136 0-49.152 22.016-49.152 49.152v778.24c0 27.136 22.016 49.152 49.152 49.152h635.392c18.432 0 32.768 14.848 32.768 32.768s-14.336 33.28-32.768 33.28z"/></svg>