<svg class="icon" viewBox="0 0 1024 1024" xmlns="http://www.w3.org/2000/svg" width="200" height="200"><defs><style/></defs><path d="M841.045 833.579H225.621c-77.098 0-139.861-62.379-139.861-139.051V181.675c0-76.587 62.763-139.008 139.861-139.008H840.96c77.099 0 139.861 62.378 139.861 139.05v512.854c.086 76.629-62.72 139.008-139.776 139.008zM225.621 98.304a83.712 83.712 0 0 0-83.882 83.456v512.853c0 45.995 37.674 83.371 83.882 83.371H840.96a83.712 83.712 0 0 0 83.883-83.413V181.675a83.712 83.712 0 0 0-83.883-83.371H225.621z"/><path d="M445.952 386.176L287.659 543.531a24.96 24.96 0 0 1-35.115 0 24.619 24.619 0 0 1 0-34.944l175.787-174.72a24.96 24.96 0 0 1 35.114 0L621.74 491.179l158.208-157.312a24.96 24.96 0 0 1 35.114 0 24.619 24.619 0 0 1 0 34.901L639.275 543.531a24.96 24.96 0 0 1-35.072 0L445.867 386.133zM113.749 883.029h839.168a27.861 27.861 0 1 1 0 55.638H113.75a27.861 27.861 0 0 1-27.989-27.819c0-15.317 12.587-27.819 27.99-27.819z"/></svg>