<svg class="icon" width="200" height="200" viewBox="0 0 1024 1024" xmlns="http://www.w3.org/2000/svg"><path d="M828.176 196.271c-84.372-84.373-196.55-130.839-315.871-130.839s-231.499 46.466-315.87 130.84c-84.373 84.37-130.838 196.55-130.838 315.87 0 86.928 24.996 171.204 72.285 243.717 9.375 14.375 28.628 18.428 43.004 9.055 14.374-9.374 18.428-28.628 9.054-43.002-40.688-62.391-62.194-134.928-62.194-209.77 0-212.047 172.514-384.562 384.561-384.562 212.047 0 384.562 172.514 384.562 384.561S724.353 896.703 512.305 896.703c-70.216 0-138.91-19.094-198.658-55.214-14.686-8.881-33.79-4.174-42.67 10.514-8.879 14.687-4.171 33.791 10.515 42.668 69.447 41.987 149.26 64.18 230.812 64.18 119.32 0 231.5-46.465 315.871-130.839 84.373-84.371 130.838-196.55 130.838-315.87s-46.464-231.5-130.837-315.87zM439.669 713.415c10.072 0 20.146-3.843 27.832-11.53l296.458-296.458c15.372-15.371 15.372-40.292 0-55.663-15.37-15.371-40.293-15.371-55.664 0L439.669 618.391 319.27 497.994c-15.372-15.375-40.294-15.375-55.665 0-15.371 15.371-15.371 40.292 0 55.663l148.229 148.229c7.687 7.686 17.76 11.53 27.834 11.53z"/></svg>