<svg class="icon" viewBox="0 0 1024 1024" xmlns="http://www.w3.org/2000/svg" width="200" height="200"><defs><style/></defs><path d="M394.837 987.616h-231.5A113.95 113.95 0 0 1 46.19 876.864V110.798A113.95 113.95 0 0 1 163.338.046H730.29a113.95 113.95 0 0 1 115.55 110.752V449.45a39.983 39.983 0 0 1-77.967 0V110.798a39.983 39.983 0 0 0-39.982-36.784H163.338a39.983 39.983 0 0 0-39.983 36.784v766.066a39.983 39.983 0 0 0 39.983 37.184h231.499a36.784 36.784 0 1 1 0 73.568z"/><path d="M632.333 285.922H262.494a36.784 36.784 0 1 1 0-73.568h369.84a36.784 36.784 0 1 1 0 73.568zm0 187.518H262.494a36.784 36.784 0 1 1 0-73.568h369.84a36.784 36.784 0 1 1 0 73.568zm344.65 273.081c0-21.19-13.994-31.986-37.184-33.985a47.98 47.98 0 0 1-47.18-58.775c8.797-39.982 6.798-45.58-30.786-66.37l-23.99-13.195a51.178 51.178 0 0 0-71.568 5.997c-27.588 21.591-39.983 21.191-66.371 0a51.178 51.178 0 0 0-71.569-6.797l-39.983 21.99a37.584 37.584 0 0 0-19.591 47.58c12.395 39.983-5.598 65.572-48.779 69.97-17.992 1.999-29.987 11.595-30.786 27.588a749.673 749.673 0 0 0 0 94.758c0 20.391 13.594 30.787 35.984 32.786a49.179 49.179 0 0 1 48.779 57.575c-7.997 41.982-7.997 46.38 31.986 67.97 8.396 4.798 16.792 9.996 25.589 14.394a48.779 48.779 0 0 0 64.372-8.396c30.786-26.389 39.982-25.989 72.368 0a388.23 388.23 0 0 0 39.983 23.19c29.187-18.392 57.974-34.385 83.963-53.577a35.584 35.584 0 0 0 3.598-31.586c-14.793-35.985 8.797-67.57 50.378-71.57 17.193 0 28.788-10.794 29.588-25.988a831.238 831.238 0 0 0 1.199-93.559zM731.89 885.661a96.358 96.358 0 1 1 96.358-96.359 95.958 95.958 0 0 1-96.358 96.358zM223.312 587.39h260.286v73.968H223.312V587.39z"/></svg>