<svg class="icon" viewBox="0 0 1024 1024" xmlns="http://www.w3.org/2000/svg" width="512" height="512"><defs><style/></defs><path d="M569.856 598.733H375.808a28.928 28.928 0 0 1 0-57.856h194.1a28.928 28.928 0 0 1 0 57.856zm77.107-154.163H375.808a28.928 28.928 0 0 1 0-57.856h271.206a28.928 28.928 0 1 1 0 57.856z"/><path d="M762.573 868.557H261.427a67.533 67.533 0 0 1-67.43-67.43V222.924c0-37.223 30.259-67.482 67.43-67.482h76.749a28.928 28.928 0 0 1 0 57.856h-76.749a9.677 9.677 0 0 0-9.625 9.626v578.201c0 5.274 4.352 9.626 9.625 9.626h501.095a9.626 9.626 0 0 0 9.676-9.677v-578.15a9.626 9.626 0 0 0-9.676-9.677h-74.599a28.928 28.928 0 0 1 0-57.805h74.599c37.222 0 67.481 30.26 67.481 67.482v578.15c0 37.223-30.259 67.482-67.43 67.482zM569.856 213.248H452.864a28.928 28.928 0 0 1 0-57.805h116.992a28.928 28.928 0 1 1 0 57.856z"/></svg>