<svg class="icon" viewBox="0 0 1024 1024" xmlns="http://www.w3.org/2000/svg" width="200" height="200"><defs><style/></defs><path d="M764.928 814.08h-23.142c-16.999 0-30.72-13.722-30.72-30.72s13.721-30.72 30.72-30.72h23.142c24.166 0 44.032-18.022 44.032-40.14V208.076c0-22.119-19.66-40.141-44.032-40.141H356.762c-24.167 0-44.032 18.022-44.032 40.14v32.564c0 16.998-13.722 30.72-30.72 30.72s-30.72-13.722-30.72-30.72v-32.563c0-56.115 47.308-101.581 105.472-101.581h408.166c58.163 0 105.472 45.67 105.472 101.58V712.5c0 56.115-47.309 101.581-105.472 101.581z"/><path d="M670.925 917.504H255.18c-56.115 0-101.581-45.67-101.581-101.58V311.5c0-56.115 45.67-101.581 101.58-101.581h415.745c56.115 0 101.58 45.67 101.58 101.58v504.423c.205 56.115-45.465 101.581-101.58 101.581zM255.18 271.36c-22.119 0-40.141 18.022-40.141 40.14v504.423c0 22.119 18.022 40.141 40.14 40.141h415.745c22.118 0 40.14-18.022 40.14-40.14V311.5c0-22.119-18.022-40.141-40.14-40.141H255.18z"/><path d="M638.976 487.629H287.334c-14.745 0-26.624-11.879-26.624-26.624s11.879-26.624 26.624-26.624h351.642c14.746 0 26.624 11.878 26.624 26.624s-11.878 26.624-26.624 26.624zm0 143.36H287.334c-14.745 0-26.624-11.879-26.624-26.624s11.879-26.624 26.624-26.624h351.642c14.746 0 26.624 11.878 26.624 26.624s-11.878 26.624-26.624 26.624zM441.14 754.074H287.333c-14.745 0-26.624-11.879-26.624-26.624s11.879-26.624 26.624-26.624H441.14c14.746 0 26.624 11.878 26.624 26.624s-12.083 26.624-26.624 26.624z"/></svg>