<svg class="icon" viewBox="0 0 1264 1024" xmlns="http://www.w3.org/2000/svg" width="246.875" height="200"><defs><style/></defs><path d="M483.123 36.393c161.787-.005 323.569.323 485.35-.415 20.475-.097 31.591 4.905 39.788 25.37 35.164 87.746 71.916 174.879 109.44 261.642 6.846 15.831 4.495 25.697-5.453 38.549a188686.669 188686.669 0 0 0-417.403 540.8c-14.479 18.836-27.023 39.193-39.88 59.223-6.63 10.332-10.91 10.04-18.38.225-153.866-202.307-314.982-398.89-472.422-598.38-8.791-11.13-8.863-19.543-3.415-31.918 40.504-91.98 80.547-184.171 119.869-276.67 5.955-14.002 13.547-18.902 28.477-18.718 58 .732 116.014.297 174.03.292zM647.25 850.212c4.214-2.176 5.345-2.381 5.509-2.888 49.644-154.66 99.118-309.381 148.961-463.974 5.31-16.487-3.845-16.594-15.36-16.579-80.962.118-161.93.348-242.892-.174-15.79-.102-19.17 5.473-15.294 19.845 10.194 37.786 19.697 75.75 29.414 113.66 29.743 116.09 59.464 232.18 89.662 350.11zm-53.33-15.12l4.588-2.211c-38.35-149.822-76.944-299.587-114.694-449.557-4.06-16.138-13.552-16.686-26.286-16.63-57.067.267-114.135.108-171.207.108H222.29c126.653 159.606 249.144 313.948 371.63 468.29zm121.436-39.628l5.223 2.918 332.82-431.57c-64.901 0-122.588.666-180.24-.41-16.87-.317-23.787 6.083-28.482 21.29-24.084 77.967-48.978 155.673-73.692 233.451-18.463 58.133-37.084 116.214-55.629 174.32zM350.618 80.266c-1.68 7.178 2.647 10.829 5.232 14.879 40.848 63.898 82.263 127.442 122.496 191.718 10.05 16.057 14.69 15.985 25.011.128 41.385-63.55 84.05-126.274 126.009-189.455 3.4-5.115 10.24-9.57 6.712-17.275l-285.46.005zM529.51 324.792c88.387 0 170.711-.117 253.041.108 14.602.04 12.969-5.832 7.388-15.294-18.555-31.467-36.736-63.155-55.137-94.714-19.989-34.284-40.064-68.521-61.589-105.324A1811811.43 1811811.43 0 0 1 529.51 324.792zM310.554 104.238c-9.472 6.267-10.711 15.278-14.045 22.871-21.898 49.864-43.504 99.855-65.172 149.822-20.762 47.877-20.741 47.887 32 47.887h188.59l-141.373-220.58zm517.463 185.38L946.642 80.205H706.145l121.872 209.413zm242.867 34.335l-90.42-216.085L858.02 323.953h212.864z"/></svg>