<?xml version="1.0" standalone="no"?><!DOCTYPE svg PUBLIC "-//W3C//DTD SVG 1.1//EN" "http://www.w3.org/Graphics/SVG/1.1/DTD/svg11.dtd"><svg t="1587828258685" class="icon" viewBox="0 0 1264 1024" version="1.1" xmlns="http://www.w3.org/2000/svg" p-id="9388" xmlns:xlink="http://www.w3.org/1999/xlink" width="246.875" height="200"><defs><style type="text/css"></style></defs><path d="M483.1232 36.39296c161.78688-0.00512 323.56864 0.32256 485.3504-0.41472 20.47488-0.09728 31.5904 4.90496 39.78752 25.3696 35.16416 87.74656 71.91552 174.87872 109.44 261.64224 6.84544 15.83104 4.49536 25.69728-5.4528 38.54848a188686.6688 188686.6688 0 0 0-417.40288 540.8c-14.47936 18.83648-27.02336 39.1936-39.87968 59.22304-6.6304 10.33216-10.91072 10.04032-18.3808 0.22528-153.86624-202.30656-314.9824-398.88896-472.4224-598.37952-8.79104-11.13088-8.86272-19.54304-3.41504-31.91808 40.50432-91.9808 80.54784-184.17152 119.86944-276.66944 5.95456-14.0032 13.54752-18.90304 28.47744-18.71872 57.99936 0.73216 116.01408 0.29696 174.0288 0.29184z m164.12672 813.81888c4.21376-2.176 5.34528-2.3808 5.50912-2.88768 49.64352-154.65984 99.11808-309.38112 148.96128-463.9744 5.30944-16.4864-3.84512-16.59392-15.36-16.57856-80.96256 0.11776-161.93024 0.34816-242.8928-0.17408-15.79008-0.1024-19.16928 5.47328-15.29344 19.84512 10.19392 37.7856 19.69664 75.7504 29.4144 113.65888 29.74208 116.09088 59.46368 232.18176 89.66144 350.11072zM593.92 835.09248l4.58752-2.21184c-38.3488-149.82144-76.94336-299.58656-114.69312-449.55648-4.06016-16.13824-13.55264-16.68608-26.28608-16.62976-57.06752 0.26624-114.13504 0.10752-171.20768 0.10752H222.28992c126.65344 159.60576 249.14432 313.94816 371.63008 468.29056z m121.43616-39.6288l5.2224 2.9184 332.82048-431.56992c-64.90112 0-122.58816 0.6656-180.23936-0.4096-16.8704-0.31744-23.78752 6.08256-28.48256 21.28896-24.08448 77.96736-48.97792 155.6736-73.69216 233.45152-18.46272 58.13248-37.08416 116.21376-55.6288 174.32064zM350.6176 80.26624c-1.67936 7.17824 2.64704 10.8288 5.23264 14.87872 40.84736 63.8976 82.26304 127.44192 122.496 191.7184 10.05056 16.05632 14.68928 15.98464 25.0112 0.128 41.38496-63.54944 84.04992-126.27456 126.00832-189.45536 3.39968-5.11488 10.24-9.56928 6.71232-17.27488l-285.46048 0.00512z m178.8928 244.52608c88.38656 0 170.71104-0.11776 253.04064 0.10752 14.60224 0.04096 12.96896-5.83168 7.38816-15.29344-18.55488-31.46752-36.736-63.1552-55.13728-94.71488-19.98848-34.28352-40.064-68.52096-61.58848-105.32352a1811811.4304 1811811.4304 0 0 1-143.70304 215.22432zM310.5536 104.23808c-9.472 6.26688-10.71104 15.27808-14.04416 22.87104-21.89824 49.86368-43.50464 99.85536-65.17248 149.82144-20.7616 47.87712-20.74112 47.88736 32 47.88736h188.59008L310.5536 104.23808z m517.46304 185.37984l118.62528-209.41312h-240.49664l121.87136 209.41312z m242.8672 34.33472l-90.4192-216.08448-122.4448 216.08448h212.864z" p-id="9389"></path></svg>