<svg class="icon" viewBox="0 0 1024 1024" xmlns="http://www.w3.org/2000/svg" width="200" height="200"><defs><style/></defs><path d="M414.255 595.782H172.218c-86.109 0-155.927-67.491-155.927-148.946V218.764c0-81.455 69.818-148.946 155.927-148.946h242.037c86.109 0 155.927 67.491 155.927 148.946v228.072c-2.327 81.455-69.818 148.946-155.927 148.946zM172.218 137.309c-48.873 0-86.109 34.91-86.109 81.455v228.072c0 44.219 39.564 81.455 86.11 81.455h242.036c48.872 0 86.109-34.91 86.109-81.455V218.764c0-44.219-39.564-81.455-86.11-81.455H172.219z"/><path d="M837.818 861.09H595.782c-90.764 0-155.927-69.817-155.927-167.563V551.564c0-18.619 16.29-34.91 34.909-34.91s34.909 16.291 34.909 34.91v141.963c0 58.182 34.909 100.073 86.109 100.073h242.036c48.873 0 86.11-34.91 86.11-81.455V484.073c0-44.218-39.564-81.455-86.11-81.455H544.582c-18.618 0-34.91-16.29-34.91-34.909s16.292-34.909 34.91-34.909h293.236c86.11 0 155.927 67.49 155.927 148.945v228.073c0 86.11-69.818 151.273-155.927 151.273zm-574.836-13.963c-102.4 0-183.855-74.472-183.855-167.563 0-18.619 16.291-34.91 34.91-34.91s34.908 16.291 34.908 34.91c0 55.854 51.2 100.072 116.364 100.072 18.618 0 34.91 16.291 34.91 34.91-4.655 18.618-18.619 32.581-37.237 32.581zM861.09 281.6c-18.618 0-34.91-16.29-34.91-34.91 0-55.854-51.2-100.072-116.363-100.072-18.618 0-34.909-16.29-34.909-34.909S691.2 76.8 709.82 76.8c102.4 0 183.854 74.473 183.854 167.564C896 265.309 882.036 281.6 861.09 281.6z"/><path d="M660.945 686.545h-39.563l88.436-165.236h41.891l88.436 165.236h-41.89L774.982 640H681.89l-20.946 46.545zm69.819-139.636l-37.237 72.146H768l-37.236-72.146zM286.255 200.145h23.272v39.564h86.11v109.382h-23.273v-13.964h-62.837v76.8h-23.272v-76.8h-62.837v13.964h-23.273V239.709h86.11v-39.564zM223.418 316.51h62.837v-55.854h-62.837v55.854zm86.11 0h62.836v-55.854h-62.837v55.854z"/></svg>