<svg class="icon" viewBox="0 0 1024 1024" xmlns="http://www.w3.org/2000/svg" width="200" height="200"><defs><style/></defs><path d="M256 51.2h512A204.8 204.8 0 0 1 972.8 256v512A204.8 204.8 0 0 1 768 972.8H256A204.8 204.8 0 0 1 51.2 768V256A204.8 204.8 0 0 1 256 51.2zm0 76.8a128 128 0 0 0-128 128v512a128 128 0 0 0 128 128h512a128 128 0 0 0 128-128V256a128 128 0 0 0-128-128H256zm203.878 142.643h277.095v48.435c-12.954 37.735-37.735 70.4-74.906 97.997 33.792 12.39 73.216 21.402 118.835 25.907l-20.838 51.252c-61.952-7.322-112.64-21.965-153.19-44.493-42.804 20.838-95.181 37.734-157.133 50.688l-27.597-48.999c51.251-10.137 95.744-22.528 132.915-37.734a227.686 227.686 0 0 1-61.389-91.238h-33.792v-51.815zm91.239 51.815c12.39 25.907 30.976 47.308 55.757 65.33 30.412-19.148 53.504-40.55 68.71-65.33H551.117zM476.21 526.336h99.687v-44.493h58.572v44.493h107.008v52.94H634.47v48.436h134.605v55.194H634.47v92.928h-58.572v-92.928H451.994v-55.194h123.904v-48.435H476.21v-52.941zM334.848 256a788.992 788.992 0 0 1 91.238 82.227l-40.55 41.114c-21.402-25.907-52.378-53.504-92.365-82.79L334.848 256zM256 418.765h131.789v224.717c13.517-14.08 27.033-29.287 41.677-45.056l15.77 62.515a871.168 871.168 0 0 1-107.572 97.433l-22.528-52.94c10.138-9.012 15.77-19.712 15.77-32.666V475.085H256v-56.32z"/></svg>