<?xml version="1.0" standalone="no"?><!DOCTYPE svg PUBLIC "-//W3C//DTD SVG 1.1//EN" "http://www.w3.org/Graphics/SVG/1.1/DTD/svg11.dtd"><svg t="1570885875832" class="icon" viewBox="0 0 1024 1024" version="1.1" xmlns="http://www.w3.org/2000/svg" p-id="18525" xmlns:xlink="http://www.w3.org/1999/xlink" width="200" height="200"><defs><style type="text/css"></style></defs><path d="M48.136752 229.74359h71.032342v195.280592H139.450712v-34.460079h40.601163v34.460079H190.213105v-126.357515l81.178986-57.437356v367.589743H369.923647V137.846154L461.263863 183.794872v137.846154h20.293288L512 287.178028v34.462998h30.442849V183.794872h40.589493l40.589493-57.434439v218.257869h50.736137v160.817595h81.178985V183.794872h50.736137V91.897436h40.589493V45.948718h20.296205V0l40.589493 45.948718v34.46008h30.442849V183.794872H975.863248v735.179487H48.136752V229.74359z" fill="#DDEEFF" opacity=".4" p-id="18526"></path><path d="M24.797721 918.974359a487.202279 105.025641 0 1 0 974.404558 0 487.202279 105.025641 0 1 0-974.404558 0Z" fill="#EEF2F5" p-id="18527"></path><path d="M196.923077 878.131054a255.270655 20.421652 0 1 0 510.54131 0 255.270655 20.421652 0 1 0-510.54131 0Z" fill="#E3E7EA" p-id="18528"></path><path d="M611.190883 981.698006a86.062678 10.210826 0 1 0 172.125356 0 86.062678 10.210826 0 1 0-172.125356 0Z" fill="#E3E7EA" p-id="18529"></path><path d="M103.566952 943.77208a64.182336 7.293447 0 1 0 128.364672 0 64.182336 7.293447 0 1 0-128.364672 0Z" fill="#E3E7EA" p-id="18530"></path><path d="M53.97151 923.350427a42.301994 7.293447 0 1 0 84.603989 0 42.301994 7.293447 0 1 0-84.603989 0Z" fill="#E3E7EA" p-id="18531"></path><path d="M847.498575 873.754986a24.797721 4.376068 0 1 0 49.595442 0 24.797721 4.376068 0 1 0-49.595442 0Z" fill="#E3E7EA" p-id="18532"></path><path d="M226.096866 951.065527a5.659715 5.659715 0 0 0 5.834758-5.470085v-76.581197A5.659715 5.659715 0 0 0 226.096866 863.54416v87.521367z" fill="#845C45" p-id="18533"></path><path d="M226.096866 951.065527a5.659715 5.659715 0 0 1-5.834758-5.470085v-76.581197A5.659715 5.659715 0 0 1 226.096866 863.54416v87.521367z" fill="#BA805A" p-id="18534"></path><path d="M126.905983 927.726496a5.1871 5.1871 0 0 0 5.834758-4.011396v-56.159544A5.1871 5.1871 0 0 0 126.905983 863.54416v64.182336z" fill="#845C45" p-id="18535"></path><path d="M126.905983 927.726496a5.190017 5.190017 0 0 1-5.834758-4.011396v-56.159544A5.190017 5.190017 0 0 1 126.905983 863.54416v64.182336z" fill="#BA805A" p-id="18536"></path><path d="M226.096866 869.378917a49.595442 49.595442 0 1 0 0-99.190883v99.190883z" fill="#628A21" p-id="18537"></path><path d="M226.096866 869.378917a49.595442 49.595442 0 0 1 0-99.190883v99.190883z" fill="#6EA52E" p-id="18538"></path><path d="M126.905983 889.80057a26.25641 26.25641 0 0 0 0-52.512821v52.512821z" fill="#628A21" p-id="18539"></path><path d="M126.905983 889.80057a26.25641 26.25641 0 0 1 0-52.512821v52.512821z" fill="#6EA52E" p-id="18540"></path><path d="M573.264957 503.583362V417.185185a72.934473 72.934473 0 0 0-145.868946 0v86.398177a203.571783 203.571783 0 0 0-43.760683 23.201914V417.185185a116.695157 116.695157 0 0 1 233.390313 0v109.600091a203.571783 203.571783 0 0 0-43.760684-23.201914z" fill="#55ADFF" p-id="18541"></path><path d="M657.868946 883.965812a105.025641 105.025641 0 1 1 105.025641-105.025641 105.025641 105.025641 0 0 1-105.025641 105.025641z m0-195.464387a90.438746 90.438746 0 1 0 90.438746 90.438746 90.438746 90.438746 0 0 0-90.438746-90.438746z m-145.868946 58.347578h-17.504274a11.669516 11.669516 0 0 1-11.669515-11.669516v-40.516558a40.843305 40.843305 0 1 1 40.843305 0V735.179487a11.669516 11.669516 0 0 1-11.669516 11.669516z m14.586895-87.521368a23.339031 23.339031 0 1 0-29.17379 22.574678V729.344729a5.834758 5.834758 0 0 0 11.669516 0v-47.442416a23.339031 23.339031 0 0 0 17.504274-22.574678z m-23.309858-131.314142A160.45584 160.45584 0 1 0 555.177208 840.29265a120.196011 120.196011 0 0 0 31.347236 34.661378 204.216524 204.216524 0 1 1 120.035556-205.258028 119.002803 119.002803 0 0 0-45.511111-10.286678 160.45584 160.45584 0 0 0-157.771852-131.395829z" fill="#90CAFF" p-id="18542"></path><path d="M696.267487 754.930142l-26.906986 26.906986 26.839886 26.839886a8.139487 8.139487 0 0 1-11.511977 11.511977l-26.839886-26.839886-26.906986 26.906986a8.151157 8.151157 0 0 1-11.529481-11.529481l26.906986-26.906986-26.839886-26.839886a8.139487 8.139487 0 0 1 11.511977-11.511977l26.839886 26.839886 26.906986-26.906986a8.151157 8.151157 0 0 1 11.529481 11.529481z" fill="#FFCC6C" p-id="18543"></path><path d="M765.811966 851.874644h5.834758l5.834757 137.116809h-20.421652z" fill="#BA805A" p-id="18544"></path><path d="M798.547875 819.914758a51.229174 51.229174 0 0 1 33.406906 20.745481 49.919271 49.919271 0 0 1 9.283099 26.387693 74.626553 74.626553 0 0 0-39.723031-23.840821 50.604855 50.604855 0 0 1 4.977048 9.703202 49.720889 49.720889 0 0 1 2.284308 27.840547A73.91763 73.91763 0 0 0 778.511316 848.957265a72.701083 72.701083 0 0 0-4.688228 25.760456v0.338416a50.680707 50.680707 0 0 1-5.35339-8.515829v-45.409003c0.075852 0.017504 0.154621 0.029174 0.230473 0.043761a51.713459 51.713459 0 0 1 72.934473-19.934451 75.014564 75.014564 0 0 0-43.086769 18.674143z" fill="#5AA12E" p-id="18545"></path><path d="M738.613242 820.002279a50.806154 50.806154 0 0 0-42.398268 47.296547 73.981812 73.981812 0 0 1 39.454633-23.922507A50.607772 50.607772 0 0 0 728.469516 881.048433a73.809687 73.809687 0 0 1 30.049003-31.898621 73.666735 73.666735 0 0 1 4.667806 25.847977v0.338416a50.809071 50.809071 0 0 0 5.315464-8.545003V821.242165l-0.230473 0.040844A51.054131 51.054131 0 0 0 695.794872 801.266872a74.127681 74.127681 0 0 1 42.81837 18.735407z" fill="#93C110" p-id="18546"></path><path d="M891.092969 749.766382s-12.862724 12.509721-6.418234 36.98653c0 1.088182-15.009915 20.129915-15.009914 23.922507s-10.71845 23.388627 21.439817 32.636718c0.536798 0.542632 0 34.810165 0 34.810165h4.288547v-34.801413s27.872638-2.176365 10.721368-30.460353c0.53388 0-2.681071-19.035897-6.432821-21.757812-0.54555 1.633732 11.243578-36.44098-8.588763-41.336342z" fill="#E0F0FF" p-id="18547"></path><path d="M158.997151 542.632479H94.814815a8.752137 8.752137 0 1 1 0-17.504274h13.288661c-0.040843-0.070017-0.058348-0.154621-0.096274-0.224638a5.805584 5.805584 0 0 0 0-11.220239c0.040843-0.070017 0.05543-0.154621 0.096274-0.224639H74.393162a8.752137 8.752137 0 0 1 0-17.504273h64.182337a8.752137 8.752137 0 0 1 0 17.504273h-10.371282c0.040843 0.070017 0.058348 0.154621 0.096273 0.224639a5.805584 5.805584 0 0 0 0 11.220239c-0.040843 0.070017-0.05543 0.154621-0.096273 0.224638H158.997151a8.752137 8.752137 0 0 1 0 17.504274z" fill="#DFF0FF" p-id="18548"></path><path d="M824.159544 513.458689h-64.182336a8.752137 8.752137 0 0 1 0-17.504273h13.288661c-0.040843-0.070017-0.058348-0.154621-0.099191-0.224638a5.805584 5.805584 0 0 0 0-11.22024c0.040843-0.070017 0.058348-0.154621 0.099191-0.224638H739.555556a8.752137 8.752137 0 0 1 0-17.504273h64.182336a8.752137 8.752137 0 0 1 0 17.504273h-10.371282c0.040843 0.070017 0.058348 0.154621 0.096273 0.224638a5.805584 5.805584 0 0 0 0 11.22024c-0.037926 0.070017-0.05543 0.154621-0.096273 0.224638H824.159544a8.752137 8.752137 0 0 1 0 17.504273z" fill="#C3E2FF" p-id="18549"></path><path d="M287.361823 755.60114H223.179487a8.752137 8.752137 0 0 1 0-17.504274h13.288661c-0.040843-0.070017-0.058348-0.154621-0.096273-0.224638a5.805584 5.805584 0 0 0 0-11.220239c0.040843-0.070017 0.05543-0.154621 0.096273-0.224639H202.757835a8.752137 8.752137 0 1 1 0-17.504273h64.182336a8.752137 8.752137 0 0 1 0 17.504273h-10.371282c0.040843 0.070017 0.058348 0.154621 0.096273 0.224639a5.805584 5.805584 0 0 0 0 11.220239c-0.037926 0.070017-0.05543 0.154621-0.096273 0.224638H287.361823a8.752137 8.752137 0 0 1 0 17.504274z" fill="#DCEEFF" p-id="18550"></path></svg>