<?xml version="1.0" standalone="no"?><!DOCTYPE svg PUBLIC "-//W3C//DTD SVG 1.1//EN" "http://www.w3.org/Graphics/SVG/1.1/DTD/svg11.dtd"><svg t="1570885886328" class="icon" viewBox="0 0 2059 1024" version="1.1" xmlns="http://www.w3.org/2000/svg" p-id="18672" xmlns:xlink="http://www.w3.org/1999/xlink" width="402.1484375" height="200"><defs><style type="text/css"></style></defs><path d="M1338.181818 250.181818h-5.818182a34.909091 34.909091 0 0 0 0-69.818182h-58.181818a34.909091 34.909091 0 0 1 0-69.818181h209.454546a34.909091 34.909091 0 0 1 0 69.818181 34.909091 34.909091 0 0 0 0 69.818182h133.818181a34.909091 34.909091 0 0 1 0 69.818182h-279.272727a34.909091 34.909091 0 0 1 0-69.818182zM919.272727 750.545455a34.909091 34.909091 0 0 0 0 69.818181h-5.818182a34.909091 34.909091 0 0 1 0 69.818182h-139.636363a34.909091 34.909091 0 0 1 0-69.818182 34.909091 34.909091 0 0 0 0-69.818181H546.909091a34.909091 34.909091 0 0 0 0 69.818181h104.727273a34.909091 34.909091 0 0 1 0 69.818182H389.818182a34.909091 34.909091 0 0 1 0-69.818182h11.636363a34.909091 34.909091 0 0 0 0-69.818181H267.636364a34.909091 34.909091 0 0 1 0-69.818182h360.727272a34.909091 34.909091 0 0 0 0-69.818182H570.181818a34.909091 34.909091 0 0 1 0-69.818182h261.818182a34.909091 34.909091 0 0 1 0 69.818182 34.909091 34.909091 0 0 0 0 69.818182h162.909091a34.909091 34.909091 0 0 1 0 69.818182h-75.636364z" fill="#E7EAF6" p-id="18673"></path><path d="M1000.727273 482.909091m-384 0a384 384 0 1 0 768 0 384 384 0 1 0-768 0Z" fill="#FFFFFF" p-id="18674"></path><path d="M986.181818 468.363636m-334.545454 0a334.545455 334.545455 0 1 0 669.090909 0 334.545455 334.545455 0 1 0-669.090909 0Z" fill="#EAF0FF" p-id="18675"></path><path d="M639.691636 613.329455C570.065455 669.009455 534.429091 720.610909 548.648727 755.799273c29.486545 72.994909 262.312727 47.761455 520.023273-56.360728 257.710545-104.122182 442.717091-247.703273 413.224727-320.698181-12.043636-29.812364-58.018909-43.240727-125.754182-41.594182l8.046546 9.541818c57.879273-0.727273 96.64 11.013818 106.897454 36.392727 27.083636 67.031273-155.048727 203.828364-406.801454 305.547637-251.752727 101.713455-477.789091 129.826909-504.872727 62.789818-12.823273-31.732364 21.236364-79.098182 87.377454-130.978909l-7.098182-7.109818z" fill="#336EFF" p-id="18676"></path><path d="M126.912 407.272727H37.818182A32 32 0 0 1 5.818182 375.272727v-5.818182A32 32 0 0 1 37.818182 337.454545h134.423273l18.885818-29.090909H136.727273a32 32 0 0 1-32-32v-5.818181A32 32 0 0 1 136.727273 238.545455h99.735272L256.087273 208.32H400.349091v350.952727h77.614545V663.04H400.349091V791.272727H278.021818V663.04H51.083636L24.930909 564.334545 126.912 407.272727z m159.546182-67.345454h-3.374546C265.367273 374.516364 243.432727 413.323636 221.498182 448.756364L153.163636 559.272727h124.858182V512.872727c0-77.614545 3.374545-125.701818 8.436364-172.945454z" fill="#FFFFFF" p-id="18677"></path><path d="M349.090909 226.909091m26.181818 0l0 0q26.181818 0 26.181818 26.181818l0 279.272727q0 26.181818-26.181818 26.181819l0 0q-26.181818 0-26.181818-26.181819l0-279.272727q0-26.181818 26.181818-26.181818Z" fill="#336EFF" opacity=".103" p-id="18678"></path><path d="M1577.832727 355.723636l110.696728 9.925819c2.944-41.704727 27.008-66.973091 65.431272-66.973091 42.519273 0 64.029091 24.110545 64.029091 69.934545 0 57.541818-25.675636 81.745455-85.12 81.745455h-32.145454v92.974545h32.989091c69.44 0 105.367273 26.368 105.367272 74.996364 0 54.4-25.879273 82.589091-77.521454 82.589091-44.898909 0-73.774545-27.066182-93.230546-69.794909l-108.683636 49.332363c25.774545 67.392 93.300364 113.437091 185.885091 113.437091 130.420364 0 207.621818-65.576727 207.621818-181.469091 0-44.416-14.644364-76.032-40.977455-95.767273l-13.98109-10.472727H2027.636364a26.181818 26.181818 0 0 0 26.181818-26.181818v-5.818182a26.181818 26.181818 0 0 0-26.181818-26.181818h-128.203637l7.138909-9.349818c9.774545-12.8 16.942545-27.717818 21.143273-44.433455l1.105455-4.398545h46.452363a26.181818 26.181818 0 0 0 26.181818-26.181818v-5.818182a26.181818 26.181818 0 0 0-26.181818-26.181818h-44.544l-0.698182-5.021091c-11.246545-81.053091-69.486545-120.913455-176.907636-120.913455-103.470545 0-169.408 60.776727-175.284364 150.021818z" fill="#FFFFFF" p-id="18679"></path><path d="M1873.454545 313.949091c-3.444364-35.514182-51.479273-57.012364-110.545454-57.925818V256a23.272727 23.272727 0 1 1 1.384727-46.504727c82.699636 1.501091 142.894545 41.384727 154.484364 97.233454 0.773818 2.280727 1.198545 4.712727 1.221818 7.249455l0.017455 0.128a0.500364 0.500364 0 0 1-0.017455 0.197818 23.272727 23.272727 0 0 1-46.149818 4.171636 0.581818 0.581818 0 0 1-0.197818-0.413091l-0.005819-0.896a23.493818 23.493818 0 0 1-0.192-3.223272z" fill="#EAF0FF" p-id="18680"></path><path d="M1649.454545 55.272727m-32 0a32 32 0 1 0 64 0 32 32 0 1 0-64 0Z" fill="#EAF0FF" p-id="18681"></path><path d="M1613.102545 75.636364A46.545455 46.545455 0 1 1 1658.181818 110.545455v-11.636364a34.909091 34.909091 0 1 0-32.925091-23.272727h-12.154182z" fill="#336EFF" p-id="18682"></path><path d="M581.818182 122.181818m-40.727273 0a40.727273 40.727273 0 1 0 81.454546 0 40.727273 40.727273 0 1 0-81.454546 0Z" fill="#EAF0FF" p-id="18683"></path><path d="M657.454545 110.545455h-11.636363a52.363636 52.363636 0 1 0-21.981091 42.647272l7.598545 8.872728A63.709091 63.709091 0 0 1 593.454545 174.545455C558.109091 174.545455 529.454545 145.890909 529.454545 110.545455S558.109091 46.545455 593.454545 46.545455s64 28.654545 64 64z" fill="#336EFF" p-id="18684"></path><path d="M1413.818182 762.181818m-29.090909 0a29.090909 29.090909 0 1 0 58.181818 0 29.090909 29.090909 0 1 0-58.181818 0Z" fill="#EAF0FF" p-id="18685"></path><path d="M1382.295273 785.454545a46.545455 46.545455 0 1 1 43.159272 29.09091v-11.636364a34.909091 34.909091 0 1 0-30.23709-17.454546h-12.922182z" fill="#336EFF" p-id="18686"></path><path d="M800 14.545455m-14.545455 0a14.545455 14.545455 0 1 0 29.09091 0 14.545455 14.545455 0 1 0-29.09091 0Z" fill="#336EFF" p-id="18687"></path><path d="M1277.090909 369.454545m-14.545454 0a14.545455 14.545455 0 1 0 29.090909 0 14.545455 14.545455 0 1 0-29.090909 0Z" fill="#336EFF" p-id="18688"></path><path d="M951.272727 800m-20.363636 0a20.363636 20.363636 0 1 0 40.727273 0 20.363636 20.363636 0 1 0-40.727273 0Z" fill="#336EFF" p-id="18689"></path><path d="M1658.181818 1000.727273m-23.272727 0a23.272727 23.272727 0 1 0 46.545454 0 23.272727 23.272727 0 1 0-46.545454 0Z" fill="#336EFF" p-id="18690"></path><path d="M861.090909 395.636364c-41.774545 0-75.636364-33.861818-75.636364-75.636364s33.861818-75.636364 75.636364-75.636364 75.636364 33.861818 75.636364 75.636364-33.861818 75.636364-75.636364 75.636364z m0-11.636364c35.345455 0 64-28.654545 64-64s-28.654545-64-64-64-64 28.654545-64 64 28.654545 64 64 64zM890.164364 438.702545A122.478545 122.478545 0 0 1 861.090909 442.181818c-38.923636 0-73.6-18.205091-95.976727-46.562909l8.715636-7.749818C794.053818 413.847273 825.623273 430.545455 861.090909 430.545455c9.163636 0 18.065455-1.117091 26.577455-3.217455l2.501818 11.374545z m28.910545-11.130181l-4.555636-10.775273C948.573091 397.963636 971.636364 361.675636 971.636364 320c0-12.119273-1.949091-23.784727-5.556364-34.693818l11.281455-2.955637A122.094545 122.094545 0 0 1 983.272727 320c0 46.493091-25.972364 86.923636-64.197818 107.578182zM1032.727273 558.545455a37.818182 37.818182 0 1 1 0-75.636364 37.818182 37.818182 0 0 1 0 75.636364z m0-11.636364a26.181818 26.181818 0 1 0 0-52.363636 26.181818 26.181818 0 0 0 0 52.363636zM1111.214545 517.818182h-11.636363a66.682182 66.682182 0 0 0-19.159273-44.020364l8.872727-7.563636A78.272 78.272 0 0 1 1111.214545 517.818182z m-1.285818 17.454545a78.661818 78.661818 0 0 1-54.912 60.794182l-2.624-11.368727A67.025455 67.025455 0 0 0 1098.048 535.272727h11.880727zM791.272727 616.727273a52.363636 52.363636 0 1 1 0-104.727273 52.363636 52.363636 0 0 1 0 104.727273z m0-11.636364a40.727273 40.727273 0 1 0 0-81.454545 40.727273 40.727273 0 0 0 0 81.454545zM706.519273 615.377455l9.483636-6.824728C731.159273 634.333091 759.191273 651.636364 791.272727 651.636364c21.888 0 41.890909-8.058182 57.210182-21.364364l7.68 8.738909A98.525091 98.525091 0 0 1 791.272727 663.272727c-35.962182 0-67.444364-19.194182-84.753454-47.895272zM1271.272727 663.272727a32 32 0 1 1 0-64 32 32 0 0 1 0 64z m0-11.636363a20.363636 20.363636 0 1 0 0-40.727273 20.363636 20.363636 0 0 0 0 40.727273zM1205.562182 662.481455l10.693818-4.619637A61.090909 61.090909 0 0 0 1271.272727 692.363636c5.632 0 11.089455-0.762182 16.267637-2.187636l3.514181 11.101091a72.785455 72.785455 0 0 1-19.781818 2.722909c-28.997818 0-54.027636-16.965818-65.710545-41.518545z" fill="#336EFF" p-id="18691"></path></svg>